
<global>
amp_veltrack=0
ampeg_release=0.35
</global>

<group>
group_label=PP
xf_cccurve=gain
xfin_hicc1=42
xfout_hicc1=85
xfout_locc1=42

<region>
hikey=a#2
hivel=127
lokey=a2
loop_end=174945
loop_mode=loop_continuous
loop_start=38969
loop_xfade=17877
lovel=0
pitch_keycenter=a#2
sample=Horn_trill_half_PP_A#2.opus
</region>

<region>
hikey=a#3
hivel=127
lokey=a3
loop_end=174571
loop_mode=loop_continuous
loop_start=38885
loop_xfade=17839
lovel=0
pitch_keycenter=a#3
sample=Horn_trill_half_PP_A#3.opus
</region>

<region>
hikey=a#4
hivel=127
lokey=a4
loop_end=173382
loop_mode=loop_continuous
loop_start=38621
loop_xfade=17717
lovel=0
pitch_keycenter=a#4
sample=Horn_trill_half_PP_A#4.opus
</region>

<region>
hikey=c3
hivel=127
lokey=b2
loop_end=174024
loop_mode=loop_continuous
loop_start=38764
loop_xfade=17783
lovel=0
pitch_keycenter=c3
sample=Horn_trill_half_PP_C3.opus
</region>

<region>
hikey=c4
hivel=127
lokey=b3
loop_end=172195
loop_mode=loop_continuous
loop_start=38356
loop_xfade=17596
lovel=0
pitch_keycenter=c4
sample=Horn_trill_half_PP_C4.opus
</region>

<region>
hikey=c5
hivel=127
lokey=b4
loop_end=175661
loop_mode=loop_continuous
loop_start=39128
loop_xfade=17950
lovel=0
pitch_keycenter=c5
sample=Horn_trill_half_PP_C5.opus
</region>

<region>
hikey=d3
hivel=127
lokey=c#3
loop_end=171342
loop_mode=loop_continuous
loop_start=38166
loop_xfade=17509
lovel=0
pitch_keycenter=d3
sample=Horn_trill_half_PP_D3.opus
</region>

<region>
hikey=d4
hivel=127
lokey=c#4
loop_end=175271
loop_mode=loop_continuous
loop_start=39041
loop_xfade=17911
lovel=0
pitch_keycenter=d4
sample=Horn_trill_half_PP_D4.opus
</region>

<region>
hikey=d5
hivel=127
lokey=c#5
loop_end=172652
loop_mode=loop_continuous
loop_start=38458
loop_xfade=17643
lovel=0
pitch_keycenter=d5
sample=Horn_trill_half_PP_D5.opus
</region>

<region>
hikey=e3
hivel=127
lokey=d#3
loop_end=176009
loop_mode=loop_continuous
loop_start=39206
loop_xfade=17986
lovel=0
pitch_keycenter=e3
sample=Horn_trill_half_PP_E3.opus
</region>

<region>
hikey=e4
hivel=127
lokey=d#4
loop_end=172695
loop_mode=loop_continuous
loop_start=38468
loop_xfade=17647
lovel=0
pitch_keycenter=e4
sample=Horn_trill_half_PP_E4.opus
</region>

<region>
hikey=e5
hivel=127
lokey=d#5
loop_end=205175
loop_mode=loop_continuous
loop_start=45703
loop_xfade=20966
lovel=0
pitch_keycenter=E5
sample=Horn_trill_half_PP_E5.opus
</region>

<region>
hivel=127
key=f#2
loop_end=175979
loop_mode=loop_continuous
loop_start=39199
loop_xfade=17983
lovel=0
sample=Horn_trill_half_PP_F#2.opus
</region>

<region>
hikey=f#3
hivel=127
lokey=f3
loop_end=172704
loop_mode=loop_continuous
loop_start=38470
loop_xfade=17648
lovel=0
pitch_keycenter=f#3
sample=Horn_trill_half_PP_F#3.opus
</region>

<region>
hikey=f#4
hivel=127
lokey=f4
loop_end=174369
loop_mode=loop_continuous
loop_start=38841
loop_xfade=17818
lovel=0
pitch_keycenter=f#4
sample=Horn_trill_half_PP_F#4.opus
</region>

<region>
hivel=127
key=F2
loop_end=176083
loop_mode=loop_continuous
loop_start=39222
loop_xfade=17993
lovel=0
sample=Horn_trill_half_PP_F2.opus
</region>

<region>
hikey=g#2
hivel=127
lokey=g2
loop_end=201033
loop_mode=loop_continuous
loop_start=44780
loop_xfade=20543
lovel=0
pitch_keycenter=g#2
sample=Horn_trill_half_PP_G#2.opus
</region>

<region>
hikey=g#3
hivel=127
lokey=g3
loop_end=173818
loop_mode=loop_continuous
loop_start=38718
loop_xfade=17762
lovel=0
pitch_keycenter=g#3
sample=Horn_trill_half_PP_G#3.opus
</region>

<region>
hikey=g#4
hivel=127
lokey=g4
loop_end=172128
loop_mode=loop_continuous
loop_start=38341
loop_xfade=17589
lovel=0
pitch_keycenter=g#4
sample=Horn_trill_half_PP_G#4.opus
</region>
</group>

<group>
group_label=MF
xf_cccurve=gain
xfin_hicc1=85
xfin_locc1=42
xfout_hicc1=127
xfout_locc1=85

<region>
hikey=a#2
hivel=127
lokey=a2
loop_end=172322
loop_mode=loop_continuous
loop_start=38385
loop_xfade=17609
lovel=0
pitch_keycenter=a#2
sample=Horn_trill_half_MF_A#2.opus
</region>

<region>
hikey=a#3
hivel=127
lokey=a3
loop_end=174365
loop_mode=loop_continuous
loop_start=38840
loop_xfade=17818
lovel=0
pitch_keycenter=a#3
sample=Horn_trill_half_MF_A#3.opus
</region>

<region>
hikey=a#4
hivel=127
lokey=a4
loop_end=174982
loop_mode=loop_continuous
loop_start=38977
loop_xfade=17881
lovel=0
pitch_keycenter=a#4
sample=Horn_trill_half_MF_A#4.opus
</region>

<region>
hikey=c3
hivel=127
lokey=b2
loop_end=175777
loop_mode=loop_continuous
loop_start=39154
loop_xfade=17962
lovel=0
pitch_keycenter=c3
sample=Horn_trill_half_MF_C3.opus
</region>

<region>
hikey=c4
hivel=127
lokey=b3
loop_end=174386
loop_mode=loop_continuous
loop_start=38844
loop_xfade=17820
lovel=0
pitch_keycenter=c4
sample=Horn_trill_half_MF_C4.opus
</region>

<region>
hikey=c5
hivel=127
lokey=b4
loop_end=175123
loop_mode=loop_continuous
loop_start=39009
loop_xfade=17895
lovel=0
pitch_keycenter=c5
sample=Horn_trill_half_MF_C5.opus
</region>

<region>
hikey=d3
hivel=127
lokey=c#3
loop_end=174310
loop_mode=loop_continuous
loop_start=38827
loop_xfade=17812
lovel=0
pitch_keycenter=d3
sample=Horn_trill_half_MF_D3.opus
</region>

<region>
hikey=d4
hivel=127
lokey=c#4
loop_end=173731
loop_mode=loop_continuous
loop_start=38698
loop_xfade=17753
lovel=0
pitch_keycenter=d4
sample=Horn_trill_half_MF_D4.opus
</region>

<region>
hikey=d5
hivel=127
lokey=c#5
loop_end=171984
loop_mode=loop_continuous
loop_start=38309
loop_xfade=17575
lovel=0
pitch_keycenter=d5
sample=Horn_trill_half_MF_D5.opus
</region>

<region>
hikey=e3
hivel=127
lokey=d#3
loop_end=173197
loop_mode=loop_continuous
loop_start=38580
loop_xfade=17698
lovel=0
pitch_keycenter=e3
sample=Horn_trill_half_MF_E3.opus
</region>

<region>
hikey=e4
hivel=127
lokey=d#4
loop_end=174020
loop_mode=loop_continuous
loop_start=38763
loop_xfade=17783
lovel=0
pitch_keycenter=e4
sample=Horn_trill_half_MF_E4.opus
</region>

<region>
hikey=e5
hivel=127
lokey=d#5
loop_end=210330
loop_mode=loop_continuous
loop_start=46851
loop_xfade=21493
lovel=0
pitch_keycenter=E5
sample=Horn_trill_half_MF_E5.opus
</region>

<region>
hivel=127
key=f#2
loop_end=176744
loop_mode=loop_continuous
loop_start=39370
loop_xfade=18061
lovel=0
sample=Horn_trill_half_MF_F#2.opus
</region>

<region>
hikey=f#3
hivel=127
lokey=f3
loop_end=174893
loop_mode=loop_continuous
loop_start=38957
loop_xfade=17872
lovel=0
pitch_keycenter=f#3
sample=Horn_trill_half_MF_F#3.opus
</region>

<region>
hikey=f#4
hivel=127
lokey=f4
loop_end=174352
loop_mode=loop_continuous
loop_start=38837
loop_xfade=17817
lovel=0
pitch_keycenter=f#4
sample=Horn_trill_half_MF_F#4.opus
</region>

<region>
hivel=127
key=F2
loop_end=166559
loop_mode=loop_continuous
loop_start=37101
loop_xfade=17020
lovel=0
sample=Horn_trill_half_MF_F2.opus
</region>

<region>
hikey=g#2
hivel=127
lokey=g2
loop_end=211474
loop_mode=loop_continuous
loop_start=47106
loop_xfade=21610
lovel=0
pitch_keycenter=g#2
sample=Horn_trill_half_MF_G#2.opus
</region>

<region>
hikey=g#3
hivel=127
lokey=g3
loop_end=174414
loop_mode=loop_continuous
loop_start=38851
loop_xfade=17823
lovel=0
pitch_keycenter=g#3
sample=Horn_trill_half_MF_G#3.opus
</region>

<region>
hikey=g#4
hivel=127
lokey=g4
loop_end=174117
loop_mode=loop_continuous
loop_start=38784
loop_xfade=17793
lovel=0
pitch_keycenter=g#4
sample=Horn_trill_half_MF_G#4.opus
</region>
</group>

<group>
group_label=FF
xf_cccurve=gain
xfin_hicc1=127
xfin_locc1=85
xfout_hicc1=127
xfout_locc1=127

<region>
hikey=a#2
hivel=127
lokey=a2
loop_end=176667
loop_mode=loop_continuous
loop_start=39352
loop_xfade=18053
lovel=0
pitch_keycenter=a#2
sample=Horn_trill_half_FF_A#2.opus
</region>

<region>
hikey=a#3
hivel=127
lokey=a3
loop_end=175459
loop_mode=loop_continuous
loop_start=39083
loop_xfade=17930
lovel=0
pitch_keycenter=a#3
sample=Horn_trill_half_FF_A#3.opus
</region>

<region>
hikey=a#4
hivel=127
lokey=a4
loop_end=173232
loop_mode=loop_continuous
loop_start=38587
loop_xfade=17702
lovel=0
pitch_keycenter=a#4
sample=Horn_trill_half_FF_A#4.opus
</region>

<region>
hikey=c3
hivel=127
lokey=b2
loop_end=175587
loop_mode=loop_continuous
loop_start=39112
loop_xfade=17943
lovel=0
pitch_keycenter=c3
sample=Horn_trill_half_FF_C3.opus
</region>

<region>
hikey=c4
hivel=127
lokey=b3
loop_end=175973
loop_mode=loop_continuous
loop_start=39198
loop_xfade=17982
lovel=0
pitch_keycenter=c4
sample=Horn_trill_half_FF_C4.opus
</region>

<region>
hikey=c5
hivel=127
lokey=b4
loop_end=175915
loop_mode=loop_continuous
loop_start=39185
loop_xfade=17976
lovel=0
pitch_keycenter=c5
sample=Horn_trill_half_FF_C5.opus
</region>

<region>
hikey=d3
hivel=127
lokey=c#3
loop_end=174196
loop_mode=loop_continuous
loop_start=38802
loop_xfade=17801
lovel=0
pitch_keycenter=d3
sample=Horn_trill_half_FF_D3.opus
</region>

<region>
hikey=d4
hivel=127
lokey=c#4
loop_end=172572
loop_mode=loop_continuous
loop_start=38440
loop_xfade=17635
lovel=0
pitch_keycenter=d4
sample=Horn_trill_half_FF_D4.opus
</region>

<region>
hikey=d5
hivel=127
lokey=c#5
loop_end=172265
loop_mode=loop_continuous
loop_start=38372
loop_xfade=17603
lovel=0
pitch_keycenter=d5
sample=Horn_trill_half_FF_D5.opus
</region>

<region>
hikey=e3
hivel=127
lokey=d#3
loop_end=172870
loop_mode=loop_continuous
loop_start=38507
loop_xfade=17665
lovel=0
pitch_keycenter=e3
sample=Horn_trill_half_FF_E3.opus
</region>

<region>
hikey=e4
hivel=127
lokey=d#4
loop_end=174084
loop_mode=loop_continuous
loop_start=38777
loop_xfade=17789
lovel=0
pitch_keycenter=e4
sample=Horn_trill_half_FF_E4.opus
</region>

<region>
hikey=e5
hivel=127
lokey=d#5
loop_end=243878
loop_mode=loop_continuous
loop_start=54324
loop_xfade=24921
lovel=0
pitch_keycenter=E5
sample=Horn_trill_half_FF_E5.opus
</region>

<region>
hivel=127
key=f#2
loop_end=160654
loop_mode=loop_continuous
loop_start=35785
loop_xfade=16417
lovel=0
sample=Horn_trill_half_FF_F#2.opus
</region>

<region>
hikey=f#3
hivel=127
lokey=f3
loop_end=175051
loop_mode=loop_continuous
loop_start=38992
loop_xfade=17888
lovel=0
pitch_keycenter=f#3
sample=Horn_trill_half_FF_F#3.opus
</region>

<region>
hikey=f#4
hivel=127
lokey=f4
loop_end=175539
loop_mode=loop_continuous
loop_start=39101
loop_xfade=17938
lovel=0
pitch_keycenter=f#4
sample=Horn_trill_half_FF_F#4.opus
</region>

<region>
hivel=127
key=F2
loop_end=173643
loop_mode=loop_continuous
loop_start=38679
loop_xfade=17744
lovel=0
sample=Horn_trill_half_FF_F2.opus
</region>

<region>
hikey=g#2
hivel=127
lokey=g2
loop_end=165445
loop_mode=loop_continuous
loop_start=36853
loop_xfade=16906
lovel=0
pitch_keycenter=g#2
sample=Horn_trill_half_FF_G#2.opus
</region>

<region>
hikey=g#3
hivel=127
lokey=g3
loop_end=173029
loop_mode=loop_continuous
loop_start=38542
loop_xfade=17681
lovel=0
pitch_keycenter=g#3
sample=Horn_trill_half_FF_G#3.opus
</region>

<region>
hikey=g#4
hivel=127
lokey=g4
loop_end=173616
loop_mode=loop_continuous
loop_start=38673
loop_xfade=17741
lovel=0
pitch_keycenter=g#4
sample=Horn_trill_half_FF_G#4.opus
</region>
</group>